<svg xmlns="http://www.w3.org/2000/svg" viewBox="0 0 512 512" width="192" height="192">
  <defs>
    <linearGradient id="bgGradient" x1="0%" y1="0%" x2="100%" y2="100%">
      <stop offset="0%" style="stop-color:#1a5fb4;stop-opacity:1" />
      <stop offset="100%" style="stop-color:#0d3d7a;stop-opacity:1" />
    </linearGradient>
    <linearGradient id="armGradient" x1="0%" y1="0%" x2="100%" y2="100%">
      <stop offset="0%" style="stop-color:#ffffff;stop-opacity:1" />
      <stop offset="100%" style="stop-color:#e8f0fe;stop-opacity:1" />
    </linearGradient>
  </defs>
  <circle cx="256" cy="256" r="240" fill="url(#bgGradient)"/>
  <rect x="196" y="360" width="120" height="40" rx="8" fill="#0d9f61"/>
  <rect x="216" y="340" width="80" height="30" rx="6" fill="#0b8a53"/>
  <circle cx="256" cy="320" r="25" fill="#ffffff"/>
  <circle cx="256" cy="320" r="12" fill="#1a5fb4"/>
  <rect x="236" y="240" width="40" height="90" rx="8" fill="url(#armGradient)" transform="rotate(-15 256 320)"/>
  <circle cx="290" cy="245" r="22" fill="#ffffff"/>
  <circle cx="290" cy="245" r="10" fill="#1a5fb4"/>
  <rect x="275" y="165" width="35" height="85" rx="8" fill="url(#armGradient)" transform="rotate(25 290 245)"/>
  <circle cx="320" cy="175" r="18" fill="#ffffff"/>
  <circle cx="320" cy="175" r="8" fill="#1a5fb4"/>
  <rect x="310" y="135" width="25" height="45" rx="6" fill="#e69f00" transform="rotate(-10 320 175)"/>
  <path d="M320 135 L295 100 L305 95 L330 130 Z" fill="#dc3545"/>
  <rect x="290" y="95" width="20" height="10" rx="3" fill="#dc3545"/>
  <path d="M325 135 L350 100 L340 95 L315 130 Z" fill="#dc3545"/>
  <rect x="335" y="95" width="20" height="10" rx="3" fill="#dc3545"/>
  <circle cx="256" cy="320" r="6" fill="#0d9f61"/>
  <circle cx="290" cy="245" r="5" fill="#0d9f61"/>
  <circle cx="320" cy="175" r="4" fill="#0d9f61"/>
  <circle cx="180" cy="380" r="8" fill="#0dcaf0" opacity="0.8"/>
  <circle cx="160" cy="360" r="6" fill="#0dcaf0" opacity="0.6"/>
  <circle cx="145" cy="340" r="4" fill="#0dcaf0" opacity="0.4"/>
</svg>